<?xml version="1.0" encoding="utf-8"?>
<!-- Generator: Adobe Illustrator 25.2.0, SVG Export Plug-In . SVG Version: 6.00 Build 0)  -->
<svg version="1.1" id="_x23_Nuedigital_Logo" xmlns="http://www.w3.org/2000/svg" xmlns:xlink="http://www.w3.org/1999/xlink"
	 x="0px" y="0px" viewBox="0 0 841.1 382.8" style="enable-background:new 0 0 841.1 382.8;" xml:space="preserve">
<g>
	<g>
		<path d="M230.1,111.4h-17.5V8.2h18.8l32.2,58.1l10.6,21.9h0.6c-0.8-10.6-2.4-23.7-2.4-35.2V8.2h17.5v103.2h-18.8l-32.2-58.1
			l-10.6-21.9h-0.6c0.8,10.9,2.4,23.3,2.4,34.9V111.4z"/>
		<g>
			<path d="M360.6,20.2c5.5,0,9.6-4.3,9.6-9.6c0-5.4-4.1-9.6-9.6-9.6c-5.7,0-9.6,4.3-9.6,9.6C350.9,16,354.9,20.2,360.6,20.2z"/>
			<path d="M334.9,113.3c10.6,0,18.1-5.2,24.9-13.3h0.5l1.4,11.4h14.8V33.9h-18.1v53c-5.8,7.6-10.4,10.7-17.2,10.7
				c-8.4,0-12-4.7-12-17.5V33.9h-18.1v48.6C311,102.1,318.3,113.3,334.9,113.3z"/>
			<path d="M328.1,20.2c5.7,0,9.6-4.3,9.6-9.6c0-5.4-3.9-9.6-9.6-9.6c-5.5,0-9.6,4.3-9.6,9.6C318.4,16,322.5,20.2,328.1,20.2z"/>
		</g>
		<path d="M416.5,64.1c4.7-11.7,12.1-15.9,18.3-15.9c3.3,0,5.4,0.5,8,1.3l3.2-15.8c-2.4-1.1-4.9-1.6-8.8-1.6
			c-8.2,0-16.4,5.5-21.9,15.6h-0.6L413.4,34h-15v77.5h18.1V64.1L416.5,64.1z"/>
		<path d="M478.3,57.3c6.5-6.3,10.9-9.6,17.7-9.6c8.5,0,12.1,4.7,12.1,17.5v46.2h18.1V62.8c0-19.6-7.3-30.8-23.8-30.8
			c-10.6,0-18.5,5.5-25.4,12.3h-0.6l-1.3-10.4h-15v77.5h18.1L478.3,57.3L478.3,57.3z"/>
		<path d="M586.2,32.1c-7.9,0-15.9,3.9-22.4,9.6l0.5-12.9V0h-18.1v111.4h14.4l1.6-8.2h0.5c6.5,6.5,14,10.1,21.1,10.1
			c17.2,0,33.1-15.3,33.1-42C616.8,47.5,605.6,32.1,586.2,32.1z M579.9,98.3c-4.6,0-10.1-1.7-15.6-6.5V55.7c6-5.8,11.4-8.7,17-8.7
			C593,47,598,56.2,598,71.6C598,89.2,590.1,98.3,579.9,98.3z"/>
		<path d="M697.4,68.8c0-21.6-11-36.8-32-36.8c-18.1,0-35.7,15.5-35.7,40.7c0,25.6,16.7,40.5,38.2,40.5c9.8,0,19.1-3.5,26.5-8.4
			l-6.2-11.4c-5.7,3.6-11.4,5.7-18,5.7c-12.5,0-21.3-7.9-22.9-21.6h49.2C697.1,75.8,697.4,72.3,697.4,68.8z M647.2,65.4
			c1.6-12.5,9.5-19.2,18.6-19.2c10.6,0,15.8,7.3,15.8,19.2H647.2z"/>
		<path d="M733.1,64.1c4.7-11.7,12.1-15.9,18.3-15.9c3.3,0,5.4,0.5,8,1.3l3.2-15.8c-2.4-1.1-4.9-1.6-8.8-1.6
			c-8.2,0-16.4,5.5-21.9,15.6h-0.7L729.9,34h-15v77.5H733V64.1H733.1z"/>
		<path d="M812.7,99.3H799c-9.5,0-12.6-2.7-12.6-7.1c0-3.5,1.4-5.4,3.8-7.4c3.5,1.4,7.3,2.1,10.6,2.1c16.4,0,29.3-9.2,29.3-26.3
			c0-5.4-1.9-10.1-4.4-13.1h14V34.1h-27.6c-3.2-1.1-7.1-1.9-11.4-1.9c-16.2,0-30.6,9.9-30.6,27.8c0,9.2,4.9,16.6,10.1,20.5v0.6
			c-4.4,3.2-8.5,8.4-8.5,14.4c0,6.3,3,10.4,6.9,12.9v0.6c-7.1,4.4-11,10.1-11,16.6c0,13.6,13.7,20.2,32.2,20.2
			c25.2,0,41.3-12,41.3-27.3C841.1,105,831.3,99.3,812.7,99.3z M800.7,44.5c7.6,0,13.4,5.7,13.4,15.3c0,9.9-6,15.6-13.4,15.6
			c-7.6,0-13.6-5.7-13.6-15.6C787.2,50.1,793.2,44.5,800.7,44.5z M802.6,133.8c-12.3,0-19.9-4.1-19.9-11c0-3.6,1.9-7.1,6-10.3
			c3,0.8,6.3,1.1,10.6,1.1h10.6c8.8,0,13.7,1.7,13.7,7.7C823.6,128,815.1,133.8,802.6,133.8z"/>
		<path d="M242.9,143.6h-30.3v102.5h31.9c29.7,0,51.1-15.5,51.1-51.7C295.6,158.1,274.1,143.6,242.9,143.6z M241.3,224.4h-1.6v-59
			h1.6c14.8,0,26.5,5,26.5,29S256.1,224.4,241.3,224.4z"/>
		<rect x="309.7" y="143.6" width="27.1" height="102.5"/>
		<path d="M438.4,235.4v-48.9h-39.1v22.1h15.1v14.2c-1.9,1.3-5,1.9-7.9,1.9c-18.3,0-26.8-10.7-26.8-30c0-18.6,10.4-29.7,24.3-29.7
			c8.2,0,13.3,3.2,18.3,7.6l14.2-17.4c-7.3-7.3-18.3-13.6-33.4-13.6c-27.5,0-51.1,19.6-51.1,54c0,35,23,52.4,51.7,52.4
			C418.2,248.1,431.2,242.4,438.4,235.4z"/>
		<rect x="458.3" y="143.6" width="27.1" height="102.5"/>
		<polygon points="552.2,246.2 552.2,166.3 577.4,166.3 577.4,143.6 500,143.6 500,166.3 525,166.3 525,246.2 		"/>
		<path d="M636.7,143.6h-32.8l-31.2,102.5h27.8l5-21.8h28.7l5,21.8h28.7L636.7,143.6z M610.3,203.4l1.7-7.1c2.5-9.8,5-22.1,7.3-32.5
			h0.6c2.5,10.3,5,22.7,7.6,32.5l1.7,7.1H610.3z"/>
		<polygon points="678.7,143.6 678.7,246.2 744.7,246.2 744.7,223.5 705.8,223.5 705.8,143.6 		"/>
		<polygon points="212.6,380.9 239.7,380.9 239.7,343.4 273.8,343.4 273.8,320.7 239.7,320.7 239.7,301.1 279.5,301.1 279.5,278.4 
			212.6,278.4 		"/>
		<polygon points="319.1,339.9 352.5,339.9 352.5,317.2 319.1,317.2 319.1,301.1 358.2,301.1 358.2,278.4 291.9,278.4 291.9,380.9 
			359.8,380.9 359.8,358.2 319.1,358.2 		"/>
		<path d="M428,321.9l-12.5-4.9c-9.3-3.6-15.1-5.4-15.1-10.3c0-4.6,4.1-6.9,10.7-6.9c6.5,0,11.9,1.9,17.6,5.5l13.4-17.8
			c-9.1-7.5-20.6-11.1-31.1-11.1c-22.4,0-38.2,14.4-38.2,31.9c0,14.8,9.6,24.1,20.7,28.6l12.8,5.4c8.7,3.5,13.9,5,13.9,9.9
			c0,4.6-3.5,7.3-11.7,7.3c-7.6,0-16.7-4.1-24-9.9l-15.3,18.5c11,9.9,25.9,14.7,38.8,14.7c25.6,0,40.1-15.5,40.1-32.8
			C448.1,335.8,440.8,327,428,321.9z"/>
		<polygon points="530.2,278.4 452.9,278.4 452.9,301.1 478,301.1 478,380.9 505.1,380.9 505.1,301.1 530.2,301.1 		"/>
		<rect x="542.6" y="278.4" width="27.1" height="102.5"/>
		<path d="M649.3,278.4l-10.4,44.8c-2.7,10.9-4.7,21.5-7.6,32.5h-0.6c-2.8-11-4.7-21.6-7.6-32.5l-10.7-44.8h-28.7L614,380.9h32.8
			l30.3-102.5H649.3z"/>
		<path d="M730.9,278.4h-32.8l-31.2,102.5h27.8l5-21.8h28.7l5,21.8h28.7L730.9,278.4z M704.5,338.2l1.7-7.1c2.5-9.8,5-22.1,7.3-32.5
			h0.6l9.3,39.6H704.5z"/>
		<polygon points="799,278.4 771.9,278.4 771.9,380.9 837.8,380.9 837.8,358.2 799,358.2 		"/>
	</g>
	<g>
		<path d="M26,320.7c0.4-0.8,1-1.5,1.5-2.1c2.3-3.9,6.3-6.6,11-7.3c0.8-0.3,1.7-0.5,2.5-0.6c0.8-0.3,29.7-6.9,30.6-7.1
			c0.8-0.3,1.7-0.5,2.5-0.6l0,0c-0.1-0.1-0.2-0.3-0.3-0.4c-0.6-0.6-46.8-53.3-47.3-54c-0.6-0.6-1.2-1.3-1.8-2
			c-3.3-3.2-5.3-7.6-5.3-12.6c0-9.7,7.9-17.6,17.6-17.6c1,0,2,0.1,2.9,0.2c0.9,0,54.9,4.9,55.8,5.1c0.9,0,1.8,0.1,2.7,0.2
			c0.2,0,0.5,0,0.7,0c-0.1-0.1-0.1-0.1-0.2-0.2c-0.6-0.6-1.2-1.3-1.7-2c-0.6-0.6-23.4-27.4-23.9-28.1c-0.6-0.6-1.2-1.3-1.7-2
			c-3.5-3.6-5.6-8.5-5.6-13.9c0-3.7,1-7.1,2.8-10.1c0.4-0.8,0.8-1.6,1.2-2.4l77.9-155H0v348.5C10.3,342.5,25.7,321.2,26,320.7z"/>
		<path d="M110.6,171.7c-0.2,0.6-0.5,1.1-0.8,1.7c0.3,0.4,0.6,0.8,0.9,1.2c0.6,0.6,1.1,1.3,1.7,2.1c0.6,0.6,42.6,52.7,43.1,53.4
			c0.6,0.6,1.2,1.3,1.7,2.1c3.1,3.4,5,7.8,5,12.8c0,10.4-8.4,18.8-18.8,18.8c-1.2,0-2.3-0.1-3.4-0.3c-0.9,0-60.1-6.7-61-6.9h-0.1
			c0.6,0.6,35.3,42.1,35.8,42.8c0.6,0.6,1.2,1.3,1.7,2c2.9,3,4.7,7.1,4.7,11.6c0,8.5-6.4,15.4-14.6,16.4c-0.8,0.2-1.7,0.4-2.6,0.5
			c-0.8,0.2-50.5,9.9-51.3,10c-0.8,0.2-1.7,0.4-2.6,0.5c-0.2,0.1-0.5,0.1-0.8,0.2c-0.2,0.2-0.3,0.4-0.5,0.6c-0.4,0.6-21.6,28-31,40
			h163.6v-346C160.9,74.7,111,171.1,110.6,171.7z"/>
	</g>
</g>
</svg>
